<?xml version="1.0" encoding="utf-8"?>
<!-- Generator: Adobe Illustrator 26.0.2, SVG Export Plug-In . SVG Version: 6.00 Build 0)  -->
<svg version="1.1" id="Layer_3" xmlns="http://www.w3.org/2000/svg" xmlns:xlink="http://www.w3.org/1999/xlink" x="0px" y="0px"
	 viewBox="0 0 275.7 185.4" style="enable-background:new 0 0 275.7 185.4;" xml:space="preserve">
<style type="text/css">
	.st0{fill:#DA3832;}
</style>
<g>
	<g>
		<path class="st0" d="M216.2,6.5c-37.7-6-53.6-6.5-78.3-6.5S66.8,3.7,45.6,11.6c-21.2,7.9-31.7,10.8-38,14.2S0,32.4,0,35.9
			c0,10.4,22.8,32.6,47.1,43.4s54.2,18.4,72.8,19.3c20.8,1,51.8-0.9,72.7-5.9c20.9-5.1,52.2-19.6,63.5-31.4
			c11.1-10.8,19.7-22.1,19.7-27.9C275.7,27.5,253.9,12.5,216.2,6.5z M240.9,59.4c-4.1,1.9-17.1,9.8-30.7,14.6
			c-13.6,4.8-45.3,6-94.3,7c-49.1,1-79.1-19.3-79.1-19.3s45.9,5.1,57.6,5.7s42.4-2.5,63.9-2.5s74.7-6.7,82-8.2
			C247.5,55,245,57.5,240.9,59.4z M245.9,48.9c-14.2,2.5-46.5,5.4-65.5,6.3c-19,1-64.9,1-81.7,1s-56.7-3.5-66.2-5.4
			S8.2,41.7,7.2,35.7c0.3-1.9,18.4-9.8,35.8-16.1s60.1-9.8,92.8-10.8c32.6-0.9,41.5,1.3,80.7,6.6s51.9,16.1,51.9,20.3
			C268.4,39.8,260.2,46.4,245.9,48.9z"/>
		<path class="st0" d="M226,24.6c-18-5.7-24.7-3.5-43.7-6.3c-19-2.9-34.5-3.5-54.1-2.2C108.6,17.3,82,21.4,63,24.6
			c-19,3.2-21.2,3.8-21.2,6.6c0,2.8,8.5,3.2,7.9,6.3c-0.6,3.2-3.8,2.2-9.5,1.9C34.5,39.1,26,39.1,26,41.3s0.3,4.4,9.2,6
			c8.9,1.6,41.1,1.9,57.3,2.8c16.1,1,62.7-0.3,82.6-1s50-3.5,68.7-6.3c18.7-2.8,15.2-3.8,14.9-7.6C258.6,32.2,244.1,30.3,226,24.6z
			 M82.9,36.9C78.2,36.3,71.2,35,71.2,35s5.7,0.3,10.8-0.3c5.1-0.6,13.6-1,13.6,1.3C95.9,38.8,87.7,37.5,82.9,36.9z M180.1,33.1
			c-13.6-0.6-27.9-1.6-36.7-1.9s-13,0.3-13-1.9s12.7-3.5,24.7-2.5c12,1,31.7,3.2,38.3,3.8s7.6,1.6,7.6,1.6
			C200.4,35,193.7,33.7,180.1,33.1z"/>
	</g>
</g>
<g>
	<path class="st0" d="M26,151.2l-3.7,3.7c-4.2,4.2-7.3,5.2-11.3,3.8c-4.9-1.8-7.5-7-5.8-11.7c0.6-1.7,1.6-3,3.9-5.3l27.8-27.9
		c3.5-3.4,6.8-4.5,10.7-3.1c3.8,1.4,5.8,4.4,6.3,9.2l3.8,39.2c0.3,3.3,0.2,4.8-0.4,6.5c-1.7,4.7-7.1,7.1-11.9,5.4
		c-4-1.4-5.8-4.2-6.3-10.1l-0.5-5.1L26,151.2z M41.9,160.6c0.4,4.8,1.5,6.8,4.4,7.8c3.4,1.2,7.1-0.5,8.3-3.7
		c0.5-1.3,0.5-2.5,0.3-5.3l-3.8-39.2c-0.3-3.8-1.6-5.7-4.4-6.7c-2.7-1-5-0.4-7.6,2.4l-27.9,27.8c-2,2-2.7,3-3.2,4.3
		c-1.1,3.2,0.7,6.9,4,8.1c2.9,1,5,0.2,8.4-3.2l4.8-4.9l16,5.7L41.9,160.6z M24.5,144.7l-6.1,6.1c-2.6,2.6-3.8,3.2-5.4,2.6
		c-1.9-0.7-3-2.8-2.3-4.5c0.3-0.8,0.9-1.6,2.5-3.3L41,117.8c1.9-1.9,3-2.4,4.7-1.8c1.7,0.6,2.3,1.6,2.6,4.4l3.7,39.2
		c0.2,2.3,0.2,3.3,0,4.1c-0.6,1.8-2.9,2.7-4.8,2c-1.6-0.6-2.2-1.8-2.5-5.4l-0.9-8.6L24.5,144.7z M43.1,144.1l-1.6-16.5l-11.7,11.7
		L43.1,144.1z M39.3,133.9l0.6,6.1l-4.9-1.7L39.3,133.9z"/>
	<path class="st0" d="M103.6,163.4c-1.1,5.5-4,9.8-8.5,12.6c-5.2,3.2-9.4,3.6-18.2,1.9l-8.1-1.6c-4.6-0.9-6.8-2-8.4-4.2
		c-1.7-2.4-2-5.2-1.1-9.7l6.2-32.3c0.9-4.5,2.2-6.9,4.7-8.5c2.4-1.5,4.8-1.7,9.4-0.9l6.7,1.3c6.1,1.2,7.7,1.7,10.2,3
		c7.1,3.9,11,11.7,9.5,19.2c-0.6,3.1-1.9,5.9-3.9,8.4C103.9,155.7,104.4,159.4,103.6,163.4z M103.2,143.7c1-5.2-0.7-10.3-4.8-14
		c-2.8-2.5-5.4-3.6-12.6-5l-6.7-1.3c-7-1.4-9.5,0.2-10.8,7.1L62,162.8c-1.3,6.9,0.4,9.2,7.4,10.6l8.1,1.6c8.2,1.6,11.6,1.3,16.2-1.5
		c3.8-2.3,6.2-5.9,7.1-10.7c0.8-4,0.1-7.4-2-10.5C101,150,102.5,147,103.2,143.7z M98,162.3c-0.8,3.9-2.7,6.9-5.8,8.8
		c-3.9,2.4-6.9,2.6-14.2,1.1l-8.1-1.6c-5.4-1-6.2-2.1-5.2-7.3l6.2-32.3c1-5.3,2.1-5.9,7.5-4.9l6.7,1.3c7.2,1.4,9.3,2.2,11.8,4.8
		c3.1,3.2,4.2,6.9,3.4,11.1c-0.8,3.9-2.6,6.5-5.8,8.1C97.6,153.9,98.9,157.9,98,162.3z M72.1,164.2l9.8,1.9c4.5,0.9,7.8-1,8.6-4.9
		c0.8-4-1.6-7-6.1-7.8l-9.8-1.9L72.1,164.2z M84,156.1c2.8,0.5,4.2,2.2,3.7,4.5c-0.4,2.3-2.3,3.3-5.1,2.7l-7.2-1.4l1.4-7.3L84,156.1
		z M75.7,145.8l9.1,1.8c4.5,0.9,7.8-1,8.6-4.9c0.8-4-1.6-7-6.1-7.8l-9.1-1.8L75.7,145.8z M78.8,159.8l4.7,0.9c0.9,0.2,1.3,0,1.4-0.6
		c0.1-0.7-0.2-0.9-1.1-1.1l-4.7-0.9L78.8,159.8z M86.9,137.6c2.8,0.5,4.2,2.2,3.7,4.5c-0.4,2.3-2.3,3.3-5.1,2.7l-6.5-1.3l1.4-7.3
		L86.9,137.6z M82.3,141.4l4,0.8c0.9,0.2,1.3,0,1.4-0.6c0.1-0.7-0.2-0.9-1.1-1.1l-4-0.8L82.3,141.4z"/>
	<path class="st0" d="M165.1,156.2c-0.3,16.3-13.8,29.4-30.1,29.1c-16.4-0.3-29.4-13.8-29.2-30.1c0.3-16.4,13.8-29.4,30.2-29.2
		C152.4,126.3,165.4,139.8,165.1,156.2z M108.8,155.3c-0.2,14.8,11.5,26.9,26.3,27.1c14.8,0.2,27-11.4,27.2-26.2s-11.5-27-26.3-27.2
		C121.2,128.7,109,140.5,108.8,155.3z M159.5,156.1c-0.2,13.2-11.2,23.7-24.4,23.5c-13.3-0.2-23.8-11.1-23.6-24.3
		c0.2-13.3,11.1-23.8,24.4-23.6C149.1,132,159.7,142.8,159.5,156.1z M119,155.4c-0.2,9.1,7.1,16.6,16.3,16.8
		c9.1,0.2,16.7-7.1,16.9-16.2c0.2-9.2-7.2-16.7-16.3-16.9C126.7,139,119.1,146.2,119,155.4z M149.3,155.9c-0.1,7.6-6.4,13.6-14,13.5
		c-7.6-0.1-13.7-6.4-13.5-13.9c0.1-7.6,6.4-13.7,14-13.5C143.4,142.1,149.5,148.3,149.3,155.9z M124.6,155.5
		c-0.1,5.9,4.7,11,10.8,11.1c5.9,0.1,11-4.7,11.1-10.7c0.1-6-4.7-11-10.7-11.1C129.7,144.6,124.7,149.5,124.6,155.5z"/>
	<path class="st0" d="M214.6,148.9c1.7,9.8,1.1,15.2-2.1,20.6c-3.5,6-9.1,9.7-16.6,11c-7.5,1.3-13.9-0.4-19.3-4.9
		c-4.8-4.1-7.1-9-8.8-18.8l-3.1-18.4c-0.7-3.9-0.5-5.7,0.4-7.8c1.3-2.7,3.8-4.7,6.9-5.2c3.4-0.6,6.7,0.7,8.6,3.2
		c1.3,1.6,1.9,3.1,2.5,6.7l3.1,18.3c0.3,1.6,0.7,3.5,1,4.7c0.9,3.1,3,4.7,5.6,4.2c2-0.3,3.3-1.7,3.8-3.8c0.2-1.1,0-3.5-0.6-6.9
		l-3.1-18.3c-0.7-3.9-0.6-5.8,0.4-7.8c1.3-2.7,3.8-4.7,6.9-5.2c3.4-0.6,6.7,0.7,8.6,3.2c1.3,1.6,1.9,3.1,2.5,6.7L214.6,148.9z
		 M198.9,151.5c0.8,4.5,0.9,6.9,0.4,8.6c-0.9,2.9-3.1,4.8-5.9,5.3c-3.1,0.5-6.1-0.9-7.8-3.7c-0.7-1.3-1.4-3.8-2.1-7.7l-3.1-18.3
		c-0.6-3.4-1-4.6-2.2-5.8c-1.5-1.5-3.6-2.2-5.7-1.8c-2.3,0.4-4.2,1.9-4.9,3.9c-0.5,1.4-0.5,2.8,0,5.8l3,18.4
		c1.5,9.1,3.6,13.4,7.9,17.1c4.6,4,10.3,5.3,16.9,4.2s11.5-4.3,14.6-9.6c2.9-4.9,3.4-9.6,1.8-18.8l-3.1-18.4c-0.6-3.4-1-4.6-2.3-5.7
		c-1.4-1.5-3.5-2.2-5.7-1.8c-2.3,0.4-4.2,1.9-4.9,3.9c-0.5,1.4-0.6,2.8,0,5.8L198.9,151.5z M209,149.9c1.4,8.4,1.1,12.6-1.4,16.8
		c-2.7,4.6-6.8,7.3-12.6,8.3c-5.9,1-10.5-0.2-14.7-3.6c-3.7-3.2-5.4-7-6.8-15.4l-3.1-18.4c-0.5-2.7-0.5-3.5-0.1-4.6
		c0.4-0.9,1.5-1.7,2.7-1.9c1.3-0.2,2.6,0.2,3.3,1.2c0.6,0.7,1,1.6,1.4,4.1l3,18.3c0.9,5,1.7,7.6,3.1,9.5c2.5,3.3,6.2,4.8,10.1,4.1
		c4.3-0.7,7.5-4,8.4-8.2c0.4-1.9,0.2-4.7-0.5-9l-3.1-18.3c-0.5-2.7-0.5-3.5-0.1-4.6c0.4-0.9,1.4-1.7,2.7-1.9
		c1.3-0.2,2.5,0.3,3.3,1.2c0.6,0.7,0.9,1.6,1.4,4.1L209,149.9z"/>
	<path class="st0" d="M226.1,132.9c-3.6,1.3-5.3,1.4-7.6,0.9c-2.8-0.7-5.1-2.8-6.1-5.7c-1.1-3-0.5-6.4,1.6-8.8
		c1.3-1.6,2.7-2.4,6-3.6l23.1-8.2c3.6-1.3,5.3-1.4,7.6-0.9c2.8,0.7,5.1,2.8,6.1,5.7c1.1,3,0.5,6.4-1.6,8.8c-1.3,1.6-2.7,2.4-6,3.6
		l-2.7,1l9.1,25.7c1.3,3.8,1.5,5.6,0.9,7.8c-0.8,3-2.9,5.3-5.9,6.3c-3.2,1.1-6.7,0.6-9-1.6c-1.6-1.4-2.4-2.8-3.7-6.3l-9.1-25.7
		L226.1,132.9z M240.7,156.7c1.1,3.2,1.7,4.4,3.2,5.4c1.6,1.2,3.8,1.5,5.8,0.7c2.2-0.8,3.8-2.5,4.2-4.7c0.3-1.5,0.1-2.7-0.9-5.7
		l-10.1-28.4l5.4-1.9c3-1.1,4.2-1.7,5.2-3c1.2-1.6,1.4-3.7,0.7-5.7c-0.7-2.1-2.5-3.6-4.6-4.1c-1.3-0.2-2.6,0-5.4,1l-23.1,8.2
		c-3,1.1-4.2,1.7-5.2,3c-1.2,1.6-1.4,3.7-0.7,5.7c0.7,2.1,2.5,3.6,4.6,4.1c1.3,0.2,2.6,0,5.4-1l5.4-1.9L240.7,156.7z M224.2,127.5
		c-2.5,0.9-3.3,1-4.2,0.8c-1-0.2-1.8-1.1-2.2-2.1c-0.4-1.1-0.2-2.4,0.5-3.2c0.6-0.7,1.4-1,3.7-1.8L245,113c2.5-0.9,3.3-1,4.2-0.8
		c1,0.2,1.8,1.1,2.2,2.1c0.4,1.1,0.2,2.4-0.5,3.2c-0.6,0.7-1.4,1-3.7,1.8l-8,2.8l11,31.1c0.9,2.6,1.1,3.5,0.8,4.5
		c-0.2,1.1-1.2,2-2.3,2.4c-1.3,0.5-2.5,0.3-3.5-0.6c-0.7-0.6-1.1-1.4-2-3.8l-11-31.1L224.2,127.5z"/>
</g>
</svg>
