<?xml version="1.0" encoding="utf-8"?>
<!-- Generator: Adobe Illustrator 26.0.2, SVG Export Plug-In . SVG Version: 6.00 Build 0)  -->
<svg version="1.1" id="Layer_1" xmlns="http://www.w3.org/2000/svg" xmlns:xlink="http://www.w3.org/1999/xlink" x="0px" y="0px"
	 viewBox="0 0 1500 1200.5" style="enable-background:new 0 0 1500 1200.5;" xml:space="preserve">
<style type="text/css">
	.st0{fill:#DA3832;}
</style>
<g>
	<path class="st0" d="M573,797.1c-2.3,0-3.5,4.6-1.5,5.5c2.6,2,7.2,0.6,6.1-2.3S575.3,797.1,573,797.1z"/>
	<path class="st0" d="M645.9,928.2c5.5-1.2,5.8-8.7,2.6-12.8s-6.7-7.2-13.3-7c-9,3.5-5.8,9.3-3.5,14.2
		C634,927.7,640.4,929.4,645.9,928.2z M636.4,915.8c1.7-2.3,4.6-0.9,6.7,1.7c2,2.6,2,4.1-1.7,4.6C638.1,923,634.6,918.1,636.4,915.8
		z"/>
	<path class="st0" d="M621,885c2.9,4.4,8.4,8.4,14.2,6.1c5.8-2.3,8.4-6.7,4.3-12.5c-4-5.8-7.8-10.4-14.2-8.4
		C620.1,871.7,618.1,880.6,621,885z M632.3,878.9c1.2,2.6,2,6.1-0.6,6.7c-2.3,0.6-4.6-1.2-4.6-4.6
		C627.1,877.5,631.2,876.3,632.3,878.9z"/>
	<path class="st0" d="M761.1,882.1c5.5-1.5,7.2-4.3,5.5-8.7c-1.7-4.3-2.9-13.9-11.6-13.3c-6.1,0.3-7,9.6-5.5,14.2
		S755.6,883.6,761.1,882.1z M756.9,867.8c3.9,0,4.8,1.1,4.1,4.3s-2.5,2.7-3.9,1.1C755.7,871.7,754.6,868.9,756.9,867.8z"/>
	<path class="st0" d="M752.5,835.3c-1.6-2.7-6.2-11.7-12.1-10.7c-5.9,2.3-7.8,10.3-2.3,16.2s10.5,8.2,13,6.4
		C753.7,845.4,754.1,838.1,752.5,835.3z M745,839.9c-3.2,0.9-4.1-5.5-2.5-6.4s2.7,0.2,3.4,2.3C746.6,837.9,748.2,839.5,745,839.9z"
		/>
	<path class="st0" d="M617,837.8c-6.1,0-11.3,7.8-9.3,12.2c2,4.3,8.4,13.3,13.9,12.5c5.5-1,8.1-8.5,5.8-14.3S623.6,837.5,617,837.8z
		 M619.6,855.1c-2.6,0.6-3.2-1.7-3.8-4.6s-0.9-4.9,1.5-5.8c2.3-0.9,2.6,2,3.5,4.3C621.6,851.4,623,854.5,619.6,855.1z"/>
	<path class="st0" d="M472.7,1072c4.3,3.2,2.3,16,1.8,27.3s4.8,25.3,6.5,32.3c1.6,7,1.6,10.8,4.3,10.8s2.1-3.2,0-15.1
		c-2.1-11.9-2.7-17.2-2.7-23.7s2.7-13.4,4.8-0.5s3.2,19.4,5.4,24.2c2.2,4.8,5.9,5.9,3.2-2.2c-2.6-7.7-3.2-21.3-3.2-29.1
		c0-4.5-2.5-10-3.7-12.4c-1.3-2.6,1.7-6.6-4.3-9.8c-2.7-1.5-10.8-10.1-16.6-17.7c-4.6-5.2-11.9-4-7.7,2.9
		C465.4,1065.7,470.1,1070.1,472.7,1072z"/>
	<path class="st0" d="M906.4,1159.2v-754h63l17.5,13.9l-16-22H822.4L804,422.3l22-17.9h71.2v754.7l-89.9-0.1
		c-0.6-6.8-1.6-21-0.3-25.1c1.7-5.4,2.4-11.9-1.7-12.2c-4.1-0.3-7.8-1.7-7.5,7.4c0.3,7.6,1,24.4,1.3,29.8H789
		c0-3.4-0.1-11.4,0.7-19.6c1-10.8-3.4-12.9-8.8-12.9s-7.8,0.7-7.8,9.8c0,6.2,0.8,16.6,1.3,22.7h-210c-0.1-1.4-0.3-3.2-0.6-5.4
		c-1-6.4-1.4-11.2-5.8-11.9c-1.4,0-1.3,10.8-1.2,17.3H427.2v14.5l470.1-0.1v27h9.2v-27l166.5-0.1v-14L906.4,1159.2z M783.3,1158.7
		c-2,0-3-3.1-2.7-8.1c0.3-5.1-1.7-13.2,1.7-12.9c3.4,0.3,1.7,2,2,6.8C784.7,1149.2,785.3,1158.7,783.3,1158.7z"/>
	<path class="st0" d="M620,1138.4c3.4,0,6.1-11.2,6.8-14.2c0.7-3.1,3.4-2.4,2.4-6.1s-1-8.1-2.7-13.6s-2.4-9.2-5.8-8.8
		s-2.4,12.9-2,19.7c0.3,6.8,0,6.8-1.7,12.2C615.2,1133,615.9,1138.7,620,1138.4z"/>
	<path class="st0" d="M680.3,1076.4c0-3.4-2.4-8.8-8.1-8.5c-5.8,0.3-7.8,3.1-7.5,7.4c0.3,4.4,1.7,9.5,6.4,8.1
		C677.6,1083.5,680.3,1079.8,680.3,1076.4z"/>
	<path class="st0" d="M672.8,1115.3c4.7,3.4,5.8,4.4,5.8,4.4c4.7,0,8.5-5.4,3.7-9.8c-4.7-4.4-4.1-4.4-7.1-2.7
		C672.2,1108.9,668.1,1112,672.8,1115.3z"/>
	<path class="st0" d="M625.8,699.4c0-1.1,0.4-4.8-1.4-4.8c-1.1,0-2,2.6-2,3.7c-0.1,4.3,1.7,7.8,3.4,9.7s3.8,2,3.2,0.1
		C628.5,706.3,625.9,702.6,625.8,699.4z"/>
	<path class="st0" d="M577.6,536.5c5.4,14,8.1,36,9.2,44.1s1.2,22.5,1.6,26.4c1.4,13.3,10,15.8,0.8,25.6c-7.3,7.7-11.4,7.2-9.8,21.5
		c0.6,5.6-3.4,13.7-7.3,21.8c-3.9,8.1-4.2,13.3-2.6,23.1c1.3,7.8-5.6,15.8-0.8,20.9c4,4.3-8.7,6.8-13.3,12.6c-1.4,1.8-3.8,5.4-2.9,8
		c1.8,5.2,6.4,2.1,5.9,0.4c-1.1-3.7,0.9-4.4,1.5-4.7c3.5-2,5.9,1.8,5.9,9.3s-2,13.1,2.6,16.8s7.8,6.7,5.2,15.1
		c-1.5,4.8-5.5,15.1-2.9,15.5c2.6,0.4,5.4,0.9,8.7,1.5c8.1,1.5,3.6,7.2,0.9,9c-2.7,1.8-2.7,7.8,3.9,6.3c6.6-1.5,10.8,0.6,14.7-2.4
		s7.2-8.4,12.6-9c5.4-0.6,9.3,1.8,20.1,7.2s21.3,12,26.1,12s12-6,19.5-12.3s14.1-5.1,17.4-1.5c3.3,3.6,10.2,3.3,12,0.6
		s6.9-8.4,13.2-8.1s7.5,5.7,13.8,6.6c6.3,0.9,5.4,2.1,7.2,4.8s4.5,5.4,10.5,13.5s12.6,21.3,12,26.7s3.3,9.3,4.2,6.3
		s6.6-14.7,6.9-18.6c0.3-3.8,8.4-16.6,3.1-39.1c-2.3-9.6-11.7-24.5-24.1-28.6c-8.7-2.9-14-3-15.1-3.8c-3.6-2.8,10.3-6.5,8.5-22.8
		c-1.5-14.2,10-18.1,4.5-35.1c-3.3-10.1-7-20.3-7.1-32.9c-0.2-20.6-4.9-31.5-9.5-41.3c-9.3-19.9-7.8-32.2-7.8-32.2
		s1.5-15.8,0.7-27.3c-0.8-11.5-2.3-21.1-2.7-29.9s-3.5-14.2-1.5-23.8c1.9-9.6,0.8-36.8,2.7-48.7s-2.3-49.1-6.1-60.6
		s-9.6-19.5-20.7-19.9c-11.1-0.4-28,6.5-38.7,5.4c-10.7-1.1-22.6-3.8-29.9-7.7c-7.3-3.8-14.5-4.1-14.5-4.1
		c-14.5,3.8-21,13.5-32.3,21.5c-11.3,8.1-18.8,13.5-24.8,15.6c-6,2.1-9.7,11.3-9.7,19.4c0,8.1-3.8,16.1-4.8,24.8
		c-1.1,8.6,1.6,22.1,7.5,29.6S572.2,522.5,577.6,536.5z M591.9,559.7c-0.7-4,0.4-4.7,3.3-5.8c2.9-1.1,10.9-5.1,33.9-12.7
		c22.9-7.7,51.7-11.7,68.8-11.7s16.8,2.5,18.2,8.7s1.6,38.1,1.9,49.4c0.5,11.4-2.8,7.4-13.4,6.3c-10.6-1.1-24.5-4.3-47.8-0.3
		c-23.3,4-39,14.6-49.2,17.8c-10.2,3.3-9.5,0-11.7-5.1S592.3,566.6,591.9,559.7z M699.8,641.5c-3.5,0.2-7.1-1.2-7.4-1.6
		c-0.7-0.7,0.2-1.1,1-1.5s1.4-0.9,3.3-1.3c3.1-0.5,7-0.1,7.3,0c3.1,0.1,4.8,3,2,3.5C703.2,641.1,702.5,641.3,699.8,641.5z
		 M702.8,647.1c0,0.8-0.9,1.7-1.9,1.7s-1.1-0.5-1.1-1.3c0-1.3,0.1-1.5,1.3-1.6C702.1,645.9,702.6,646.1,702.8,647.1z M689.2,629.5
		c-4.5,2-9.8,4.4-12.1,11.5c-0.9,2.9-0.9,4.1-1.2,5.6c-0.3,1.5-3.2,0.9-5.6,1.3c-2.1,0.3-5.3,2.5-5.8,0.5c-0.5-2-4.1-10.1-9.6-12.8
		c-6.6-3.2-12.7-3.1-20.9-3c-9.3,0-14.5,5.2-17.7,5.5c-3.1,0.2-1.6-10.5,0.7-15.2c5.4-10.2,16.5-16.1,21.3-17.1
		c5.4-1.2,3.6-0.3,7.4-1.1s2.6-4.7,6.8-5c4.2-0.4,4.6,3,9.2,1.8c4.1-1.1,0.3-3.2,8.2-4.7c9.9-1.8,8.5,2,14.3,1.1
		c4.6-0.7,5,3,8.5,3.6c3,0.5,1.1-0.9,5.1-0.7c11.4,0.6,23.4,17.3,18,26.3C713.1,631.6,702.8,623.4,689.2,629.5z M689.4,642.7
		c-0.6,0.5-3.5,2.4-4.2,0.7c-0.3-0.5-0.2-1,0.1-1.6c1.1-2.2,3.6-2,4.1-1.9S690.9,641.4,689.4,642.7z M645.7,649.7
		c2.4,1,1.1,3.1-1,3.6c-1.9,0.2-3,0.9-4.1-0.7c-2.3-3.2,2.1-3.8,1.8-4.6c-1.2-3.8-3.7-3.5-9.7-2c-0.7,0.2-4.9,2.3-5.3,1.4
		c-0.2-0.5-1.6-3.9,6-5.2c5.4-0.9,9.6-2.3,14.1,0.9c4.5,3.2-2,3-2.4,4.4C644.7,648.9,645,649.4,645.7,649.7z M639.2,657.9
		c9.9-3.9,11.7,0.3,9.3,3.1c-3.7,4.4-1.6,5.9,4.4,1.2c5.1-4,8-4.7,8.4-2.3c0.5,2.7,0.5,4.3-2.8,9.7c-4.1,6.6-8,10.2-13.4,12.7
		c-3.6,1.6-12.4,4.5-22.2-0.6c-8.5-4.4-10.1-11.7-10.1-19.9c0-2.3,1.3-9.3,6.8-10.1c5-0.7,1.5,3.6,6,6.3
		C629.3,660.2,636.2,659.1,639.2,657.9z M653,652.5c0.4-3,2.7-4.4,3.3-4.3c4.4,0.4,5.6,5.7,3.7,6.4S652.4,657.3,653,652.5z
		 M588.2,664.9c0.5-2.1,3.5-16.9,9.9-8.2c2.5,3.4,1.5,6.3,3.3,17.5c1.2,7.4,4.4,18.4,1.7,18C598,691.5,585,678.6,588.2,664.9z
		 M604.4,711c2.5,3.2,3.3,3.7,8.9,11.6c5.6,7.9,11.4,14.1,22.6,22c13.5,9.6,20.8,10.7,16.1,14.1c-2.8,2-7.6-0.9-13.3-2.5
		s-12.7-4.4-22.4-12.1c-9.7-7.7-8.5-6.8-17.1-15.1c-7.5-7.2-8.3-11.2-4-14.5C598.5,711.9,601.9,707.8,604.4,711z M599.5,797.7
		c-2.7,1.8-8.2,3.6-8.7,0.9s1.5-1.5,3.9-5.1s1.2-3,4.8-3.6C603.1,789.3,602.2,795.9,599.5,797.7z M602.5,769.8
		c-1.6-4.2-3.1-4.2-4.7-3.4c-1.5,0.8-1.3,5.2,0.5,8.1s3.1,8.1-0.8,8.8s-5.7,0.8-10.1,2.9c-4.4,2.1-8,2.6-5.7-2.6
		c2.3-5.2,1.3-7.8,1.3-12.5s-0.8-8.1-3.6-9.1s-5.7,2.3-6.7-4.7s-1-11.2-1.6-15.6c-0.4-4.5,2.1-10,5.2-11.3s7-2.9,10.4-2.3
		c3.4,0.5,6.3,4.9,12.6,11.6c6.3,6.7,10.9,7.5,18.8,13.4c6.8,5,12.1,7.3,9.3,11.6c-3,5-11.6,8-15.8,9S604.1,774,602.5,769.8z
		 M698.2,795.2c-7.8,0.3-7.3-10.4-6.5-16.6c0.8-6.2-6.7-3.6-12.5-3.4c-5.7,0.3-10.4,3.4-17.4,3.4s-9.8,4.2-9.3,7.3
		s10.4,1.3,17.9-1.8s11.9-0.8,11.9,2.9s-6,3.9-11.9,8.8s-10.4,6.8-18.4,7s-11.4,0.5-20.5-5.2s-15.6-6.2-21-8.1s-4.9-4.2-0.5-7
		c4.4-2.9,8.8-4.9,20-7.5s28.5-1,37.3-0.5s12.8-4.1,15.3-6.2c4.2-3.4,13,1.3,16.8,1.5c3.9,0.3,4.4-0.5,6,6.2
		C707,782.7,703.2,795.2,698.2,795.2z M701.3,763c-0.8,1.4-17.6-3.6-24,2c-3.3,2.9-9.1,4-14,1c-8.6-5.3-1.6-9.6-4.1-12.5
		c7,1.9,12.2,1.8,16.2,1.7c4.5-0.2,8.5-1.1,10.8-1.7c4.9-1.1,5.5-2.9,9.5-5.9c2.1-1.6,7.1-7.8,8.9-9.6c0.3-0.3,0.5-0.6,0.8-0.9
		C707.8,737.9,703.7,759,701.3,763z M758.7,781.1c5.9,0.6,4.6,4.5,3.1,4.7c-1.6,0.3-3.9,2.9-3.4,5.5s3.1,1.6,8.3,1.8s2.3,4.2-1,4.2
		s-5.2,1.3-5.2,3.4s1.3,3.1,5.7,3.1s3.6,2.3,3.6,6.2s1.3,9.6-2.3,11.4c-3.4-1.6-7-7-13-12c-6-4.9-7.3-9.9-8.3-14.8
		c-1-4.9-2.6-6-5.7-6.2s-7,2.9-13.2,2.9s-6.2-1.3-10.1-6.8s3.9-5.7,9.6-4.4S752.7,780.6,758.7,781.1z M738.4,771.8
		c8.8,0.8,12.5-0.5,11.7,2.9c0.3,2.6-10.4,0.8-17.9,1c-7.5,0.3-10.4,0.5-17.1-1.8c-5.1-1.7,4.4-4.2,7.5-2.9S729.6,771,738.4,771.8z
		 M728,671.3c0-0.1,0.8,8.5-0.7,20.4c-1.5,11.8-2.1,13.3-5,17.7c-0.1,0.1-1.9,1.9-2.2,0.4c0.6-2.5,1.2-4.8,1.6-7.1
		c1.2-8.5,0.9-15,0.2-16.2c-1.7-3.1-2.4,11-3.3,16.2c-0.7,4.3-3.2,12-5.7,17.7c-0.1,0.1-0.1,0.3-0.2,0.5c-0.2,0.3-0.3,0.7-0.5,1
		c-1.9,4.4-8.2,8.1-13.2,13.4c-4.5,4.8-7.2,9.2-10.8,10.5c-9,3.2-20.4,5.1-29.3,1.8c-4.7-1.7-11.7-8.6-22-17.4s-14.8-13.6-20.9-22.3
		c-4.8-6.9-11.2-38.5-8.4-48c2.6-8.9,2.3-1.8,1.9,1.4c-0.7,5.1-0.1,13.9,7.4,21.1c5.7,5.4,14.1,8,24.2,5.6c5.1-1.2,10-4,10.7-4.6
		c0.9,2.1,1.7,2.3,2.1,2.6c1,0.8-1.6,2-2.2,2.3c-0.4,0.2-7.6,3.2-12.4,5.5c-4.8,2.3-5.7,3.6-5.9,5s0.1,4.3,0.9,5.4
		c0.8,1.3,3.1,4.4,4.6,3.3c1.6-1.2-1.9-5.9,0.4-7c9.7-4.6,20.3-4.7,21.9-4.7c9.3-0.8,9.3-3.4,13.2-3.5s4.6,2.5,10.8,2.5
		c5.1,0,12-0.9,16.7,0.4c-2.9,0.6-11.1,1.7-17.1,3.3c-3.6,0.9-3.3,2.6-7.6,2.9c-11.5,0.8-10.7-1.1-14-1.4s-7,1.4-10.4,1.2
		c-2.3-0.1-2.8-1.3-5.1-1.5c-2-0.2-3.9,0.2-5.3,1.7c-0.6,0.6-0.2,1.8,1.1,2c3.1,0.5,4.4,1.7,7.2,2.9c2.7,1.2,5.2,2.5,8.2,1.9
		c4.6-0.9,3.7-2.6,14.5-3.6c5.8-0.5,9.1,0.4,11.9,1.4c1.8,0.6,4.5-0.8,5.3-1.3c2.3-1.4,5.2-2.9,7.3-4.5c2.1-1.5,4.5-2.9,7.1-2.6
		c0.1,1.8-1.7,4.4,0.2,5.3c1.9,0.9,5.3-7.4,4.9-8.8c-0.5-1.8-1.3-3.5-3.7-4.3s-15.5-2.4-17.2-4.6c-0.6-0.8-1.5-4.3-4.8-4.3
		c-1.6,0-3.2,0.5-4.5,1.4c-1.1,0.8-2,1.9-3.1,2.8c-1.1,0.9-2.5,1.5-3.8,1.2c-0.7-0.2-1.3-0.6-2-1c-2.8-1.8-6.1-3.4-9.3-2.7
		c-1.1,0.3-2.1,0.8-3.2,0.9c-1.1,0.2-2.4-0.2-2.9-1.2c-0.7-1.2,0.3-2.7,1.1-3.8c0.4-0.5,0.9-1.1,1.4-1.5c1.3-0.9,4.1-4.6,5.9-9.6
		c1.8-4.9,1.3-6.7,1.8-10.6c0.4-2.8,2.9-3.8,3.8-3.9c3.3-0.5,5.6-0.6,6,1.2s1.3,8.4,3,12.4s9.7,14.4,22.8,16.4
		c11.4,1.8,18.1-4.1,19.4-5.2C727.3,672.1,727.7,664.6,728,671.3z M725,650.2c0.4,1.2,1.1,5.8-0.2,14.4c-0.4,2.4-2.2,6.6-6.6,10.4
		c-2.2,1.9-7.5,5.1-13.9,4.7c-5.9-0.4-9.9-2.1-14.3-5.3c-2.5-1.8-4.7-2.6-7.4-8.4c-1.5-3.3-2.8-5.8-1.7-6.7c1.1-1,4.4,0.6,6.5,1.4
		c1.8,0.7,3.8,1.6,5.6,1c0.2-0.1,0.4-0.2,0.5-0.3c0.3-0.4,0-1-0.4-1.3c-1.1-1.1-8.3-2.8-11.5-5.6c-1.5-1.3-4.3-8.3,0.7-8.9
		c1.1-0.1,3.1,0.9,4.2,0.9c2.1-0.2,8.7-3.4,8.4-0.9c0,0.3-0.8,0.8-0.9,1.2c-0.5,1.4-0.6,2.6,0.4,3.9s3.5,1.8,4.3,2s1.8,0.6,1.1,1.6
		c-0.8,1-1.6,0.5-2.7,0.4c-0.6,0-4.2-1.3-4.5-1.7c-0.6-0.7-3.7-1.8-3.3,1c0.1,0.4,3,2.3,6.5,2.8c2.5,0.4,5.8,0.6,7.1,0.3
		c4.6-0.8,6.8-2.6,8.7-4c5.3-4.1,1.1-6.1,1.2-8.4c0.1-1.2,2.5-2.3,4.4-2.1C719.6,642.9,723.1,644.2,725,650.2z M556.6,436.3
		c0.7-5.8,10.6-8.7,19.3-15.3c8.7-6.5,25.5-16.4,29.5-20c4-3.6,4.7-5.8,10.6-5.8c8-0.4,16,6.2,26.2,8.7s17.8,1.8,28-0.7
		s28.4-6.5,35-1.1c6.6,5.4,9.1,29.5,9.1,36.8s2.1,18.9,3.3,29.9c1.2,10.9,0.3,18.6-0.3,32.7c-0.7,14.1-4.7,20.6-6.2,20.5
		c-1.5-0.2,3.3-36,2.9-44.4c-0.4-8.4-1.1-16.8-4-16.8s-4,20.8-3.3,27.7s-4,34.9-7.7,34.9s-2.2-37.9-2.2-46.6s0.7-14.6-2.9-13.8
		c-3.6,0.7-1.8,21.5-2.2,30.6c-0.4,9.1-1.1,29.9-6.2,29.1s-4.4-6.9-3.6-12c0.7-5.1,0-6.2-2.2-6.2s-5.5,2.2-4.7,8.7
		c0.7,6.5,2.5,11.3-0.4,9.8s-5.5-8.7-4.4-30.6c1.1-21.9,1.5-22.2-2.2-21.1c-3.6,1.1-2.9,12.8-3.3,20.8c-0.4,8,1.5,27.3-1.5,31.7
		c-2.9,4.4-5.5,8.4-9.5-9.8s-8.7-42.6-11.7-50.2c-2.9-7.6-3.3-13.8-7.3-13.1c-4,0.7,0.7,20.4,2.5,29.9s6.2,33.1,8,39.7
		c1.8,6.5,2.5,8.7-4,9.5s-8.4,0.4-9.1-6.9c-0.7-7.3-0.7-21.8-7.7-21.1c-6.9,0.7-5.1,7.6-2.5,14.6c2.5,6.9,5.5,17.5,2.2,18.2
		s-11.3,4-13.8,4.4s-5.1-2.9-6.9-13.1s-7.3-25.9-9.5-29.9s-2.2-5.5-4.4-5.5s-5.1,7.3,0,14.2s8,22.2,9.5,27.7s3.3,11.3,0.4,11.3
		c-2.7-0.3-7.1-13.1-12.5-28.4c-5.5-15.3-15.7-29.5-22.2-36.4c-6.5-6.9-6.9-7.3-7.7-14.6C556.3,457,555.9,442.1,556.6,436.3z
		 M565.8,488.7c4.7,5.4,12.4,18.2,18.9,32c6.6,13.9,6.6,24.8,4,25.2c-2.5,0.4-2.9-7.3-4.7-14.2s-11.7-25.1-20.4-38.2
		c-8.7-13.1-8.7-16.4-8.7-16.4S561.1,483.3,565.8,488.7z"/>
	<path class="st0" d="M673.5,716.3c-3.1,0.5-5.4,0.7-8.3-0.4c-2.2-0.8-3.2,2.2-1.1,3c2.3,0.9,5.2,1.6,9.5,1.3c3-0.3,9.8-3.7,8.9-4.7
		C680.9,713.8,676.4,715.8,673.5,716.3z"/>
</g>
<g>
	<path class="st0" d="M267.2,662.8c-2.7,10.7-5.6,15.7-11.1,19.3c-5.9,3.7-12.4,4.1-23,1.4l-75-18.9c-10.5-2.6-16-6.1-19.4-12.1
		c-3.3-5.8-3.5-11.6-0.8-22.3l5.8-22.9c4.9-19.6,13.9-33.2,28.3-42.8c15.4-10.5,35.1-14,53.5-9.4c17.8,4.5,33.4,16.5,42.3,32.7
		c5.6,10.5,8.5,22.8,8,34.6c-0.4,5.5-1.7,13.2-4,22.3L267.2,662.8z M144.4,631.8c-4.1,16.3-0.7,22.3,15.2,26.3l75,18.9
		c16.1,4.1,21.8,0.3,25.9-15.9l4.6-18c3.7-14.5,4.6-23,3.3-32c-3.4-24-21.2-43.5-44.7-49.4c-18.4-4.6-38.1-0.3-52.4,11.5
		c-10.6,8.7-17.2,19.8-21.2,35.7L144.4,631.8z M254.2,659.5c-3.2,12.6-5.7,14.2-17.9,11.2l-75-18.9c-12.2-3.1-13.6-5.7-10.4-18.3
		l5.8-22.9c4.1-16.3,11.2-27.3,22.7-35.1c12.4-8.4,28.2-11,42.9-7.3c14.3,3.6,26.6,13.1,33.8,26.1c4.5,8.4,6.8,18,6.2,27.6
		c-0.2,4.7-1.5,11.6-3.5,19.7L254.2,659.5z M240.7,653.8l4.2-16.5l0.8-3.3c3.2-12.6,2-22.6-3.7-31.9c-5.3-8.5-14.2-14.9-23.9-17.4
		c-10.7-2.7-22.3-0.7-31.2,5.3c-8.5,5.7-13.9,14-16.8,25.7l-0.7,2.7l-4.1,16.3L240.7,653.8z M175.8,620.1l0.6-2.5
		c2.8-10.4,7-17.2,14.2-22c7.4-4.9,16.9-6.7,25.9-4.4c8.1,2.1,15.5,7.4,19.9,14.5c4.6,7.8,5.6,16.3,2.9,26.7l-0.8,3.3l-2.5,10.1
		L173.3,630L175.8,620.1z M231.2,637.6l0.9-3.5l0.8-3.3c2.1-9.2,1.5-15.7-2.2-21.6c-3.7-5.7-9.4-10-15.8-11.6
		c-7-1.8-14.7-0.4-20.5,3.5c-5.7,3.9-9.4,9.4-11.6,18.1l-0.6,2.5l-0.8,3.3L231.2,637.6z"/>
	<path class="st0" d="M283.4,528.3l7.4,9.7c8.4,11.1,9.9,18.7,5.3,27.5c-5.6,10.8-18.8,15.3-29.2,9.8c-3.7-1.9-6.5-4.8-11.1-10.7
		L199.6,491c-6.9-9.2-8.3-17.4-3.9-25.9c4.4-8.5,12-12.2,23.4-11.7l92.6,3.5c7.7,0.4,11.2,1.1,15.1,3.1c10.5,5.4,14.4,18.7,8.8,29.4
		c-4.6,8.9-11.7,12.2-25.6,11.5l-12.2-0.5L283.4,528.3z M310.2,494.1c11.4,0.5,16.3-1.4,19.6-7.8c3.9-7.5,1.1-16.8-6-20.5
		c-2.8-1.5-5.8-1.9-12.3-2.3l-92.6-3.5c-9-0.4-13.9,2-17.1,8.2c-3.1,6-2.4,11.6,3.2,18.6l56.1,73.8c4,5.3,6.1,7.3,9,8.7
		c7.1,3.7,16.4,0.6,20.2-6.8c3.3-6.4,2.2-11.5-4.9-20.6l-9.8-12.8l18.5-35.5L310.2,494.1z M267.7,529.8l12.4,16.1
		c5.2,7,6.2,9.8,4.3,13.5c-2.2,4.3-7.4,6.1-11.3,4c-1.8-0.9-3.4-2.6-6.8-6.9l-56.1-73.8c-3.9-5-4.5-7.8-2.6-11.5s4.5-4.8,11-4.7
		l92.5,3.7c5.5,0.2,7.9,0.5,9.6,1.4c3.9,2,5.3,7.5,3.1,11.8c-1.8,3.5-4.8,4.5-13.4,4.1l-20.4-0.7L267.7,529.8z M272.2,486.1
		l-38.9-1.5l23.6,31L272.2,486.1z M247.1,491.8l14.4,0.5l-5.6,10.8L247.1,491.8z"/>
	<path class="st0" d="M354.3,420.4c7,6.3,9.5,9.8,10.8,15c1.8,7-0.2,14.3-5,19.7c-5.3,6-13.1,8.7-20.6,7.1c-4.7-1-8.3-3.3-14.5-8.9
		l-60-53.5c-6.3-5.6-9.5-10.1-10.8-15.2c-1.8-7,0-14.2,5-19.7c5.5-6.1,10.5-7.5,23-6.8l51,2.6L314.5,344c-6.9-6.1-9.5-9.8-10.8-15
		c-1.7-6.8,0.2-14.3,5-19.7c5.3-6,13.2-8.6,20.7-7c4.7,1,8,3.1,14.4,8.8l60.2,53.6c7,6.3,9.6,9.6,11.1,14.9c1.8,6.4-0.1,13.9-5,19.4
		s-10.5,7.3-21.6,6.8l-53.4-2.6L354.3,420.4z M388.8,399.2c9,0.5,12.7-0.7,16.2-4.6c3.7-4.2,5.1-9.6,3.3-14.2
		c-1.2-3.5-3.2-5.8-8.7-10.7L339.4,316c-6-5.3-8.6-6.9-12.5-7.4c-4.8-0.6-9.7,1.3-13.2,5.1c-3.6,4-4.8,9.6-3.3,14.5
		c1,3.3,3.2,5.8,8.5,10.6l32.9,29.3l-70.2-3.6c-10.2-0.5-13.6,0.5-17.4,4.8c-3.7,4.2-5,9.5-3.3,14.8c1,3.1,3.8,6.6,8.4,10.7l60,53.5
		c5.8,5.2,8.6,6.9,12.6,7.5c4.8,0.6,9.6-1.4,13-5.3c3.6-4,5-9.5,3.3-14.5c-1-3.3-3-5.6-8.5-10.6l-33.3-29.7L388.8,399.2z
		 M345.4,430.4c4.8,4.3,6.2,6,6.9,8.2c0.6,2.7-0.3,5.4-2.1,7.5c-2.1,2.4-5,3.5-7.8,3c-2.2-0.6-4.2-1.9-8.5-5.7l-60-53.5
		c-7.5-6.7-8.9-11.4-4.6-16.2c2.1-2.4,4.4-2.8,12.2-2.5l89.1,4.6l-47-41.9c-4.8-4.3-6-5.9-6.7-8.4c-0.6-2.4,0.1-5.2,2-7.3
		c2.1-2.4,5.2-3.4,7.9-2.9c2,0.5,4.1,1.7,8.4,5.6l60.2,53.6c4.9,4.4,6.2,6,7,8.4c0.7,2.2-0.1,5-2,7.1s-4.7,2.8-11,2.5l-91.1-4.3
		L345.4,430.4z"/>
	<path class="st0" d="M445.1,335.2c5.9,7.3,7.7,11.2,8.1,16.6c0.6,7.2-2.6,14.1-8.2,18.6c-6.2,5-14.4,6.4-21.5,3.6
		c-4.6-1.9-7.5-4.5-12.8-11.2l-50.3-62.9c-5.7-7.2-7.9-11.1-8.1-16.6c-0.7-6.9,2.4-14,8.2-18.6c6.1-4.9,14.3-6.1,21.4-3.3
		c4.5,1.8,7.5,4.2,12.9,11L445.1,335.2z M415.9,358.5c5,6.2,7.3,8.2,11.2,9.5c4.7,1.4,9.8,0.4,13.8-2.9c4.2-3.4,6.4-8.7,5.5-13.9
		c-0.5-3.5-2-6.1-6.6-11.8l-50.3-63c-5-6.2-7.3-8.2-11.1-9.3c-4.5-1.5-9.8-0.4-13.7,2.7c-4.4,3.5-6.5,8.8-5.8,13.9
		c0.6,3.3,2.2,6.2,6.7,11.8L415.9,358.5z M434.7,343.5c4,5,5.1,7,5.4,9.3c0.1,2.7-1.2,5.3-3.3,7c-2.5,2-5.6,2.7-8.3,1.5
		c-1.9-0.8-3.6-2.2-7.3-6.9l-50.3-63c-4-5-4.9-6.8-5.2-9.4c-0.2-2.4,1-5.2,3.3-7s5.5-2.4,8.1-1.4c1.9,0.8,3.7,2.4,7.3,6.9
		L434.7,343.5z"/>
	<path class="st0" d="M487.1,307.5c5.1,7.9,6.6,11.9,6.5,17.3c-0.1,7.2-3.9,13.8-10,17.7c-6.7,4.4-14.9,4.9-21.7,1.5
		c-4.4-2.4-7-5.2-11.7-12.4l-44-67.5c-5-7.7-6.8-11.8-6.5-17.3c0-6.9,3.8-13.7,10-17.7c6.5-4.3,14.9-4.7,21.6-1.2
		c4.3,2.2,7,5,11.7,12.2L487.1,307.5z M455.7,327.9c4.4,6.7,6.5,8.9,10.2,10.5c4.5,1.8,9.7,1.3,14.1-1.5c4.5-2.9,7.2-8,6.9-13.3
		c-0.1-3.5-1.4-6.2-5.5-12.4l-44-67.5c-4.4-6.7-6.5-8.9-10.1-10.4c-4.4-1.9-9.7-1.3-13.9,1.4c-4.7,3.1-7.4,8.1-7.1,13.2
		c0.3,3.4,1.5,6.4,5.5,12.4L455.7,327.9z M475.8,314.8c3.5,5.4,4.4,7.4,4.4,9.8c-0.1,2.7-1.7,5.1-4,6.7c-2.7,1.7-5.8,2.1-8.4,0.7
		c-1.8-1-3.4-2.6-6.6-7.6l-44-67.5c-3.5-5.4-4.2-7.3-4.3-9.9c0.1-2.4,1.5-5,4-6.7c2.5-1.6,5.7-1.8,8.2-0.6c1.8,1,3.5,2.8,6.6,7.6
		L475.8,314.8z"/>
	<path class="st0" d="M546.4,259.7c8.2-3.8,12.1-4.8,17.4-3.9c6.7,1.1,12.6,5.6,15.5,11.9c3.3,7.1,2.8,15-1.4,21
		c-2.8,4-6,6.1-13.4,9.6l-35.9,16.8c-10,4.7-15.7,5.6-21.9,3.6c-6.6-2.2-11-7-15.7-17l-33.5-71.6c-3.9-8.3-5-12.7-4-18
		c1-6.9,5.6-13,12.3-16.1c7.1-3.3,15.4-2.6,21.6,1.8c4,2.8,6.3,5.9,9.9,13.7l27.3,58.3L546.4,259.7z M491.2,214.4
		c-3.4-7.2-5.2-9.7-8.6-11.7c-4.1-2.5-9.4-2.7-13.9-0.5c-5.1,2.4-8.4,7-8.9,12.1c-0.2,3.4,0.6,6.5,3.7,13.1L497,299
		c7,15,13.5,17.1,28.7,10l35.9-16.8c6.9-3.2,9.4-4.9,11.2-8.1c2.5-4,2.7-9,0.5-13.5c-2.2-4.7-6.6-8-11.6-8.3
		c-3.2-0.3-6.2,0.5-12.5,3.4l-27.9,13L491.2,214.4z M551.9,271.7c5.4-2.5,7.4-3,9.7-2.8c2.4,0.4,4.5,2.1,5.6,4.4
		c1.3,2.7,1.1,5.7-0.6,7.8c-1,1.6-2.9,2.7-8,5.1L522.9,303c-11.8,5.5-14.6,4.6-20-6.8l-33.5-71.6c-2.7-5.8-3.2-7.8-2.9-10.4
		c0.4-2.4,2.2-4.8,4.9-6c2.7-1.3,5.9-1,8.2,0.6c1.7,1.2,3,3.2,5.5,8.5l32.9,70.3L551.9,271.7z"/>
	<path class="st0" d="M659.2,242.9l-3.6,11.6c-4.1,13.3-9.4,19-19.2,20.4c-12.1,1.8-23.4-6.3-25.1-18c-0.6-4.2,0-8.1,2.2-15.3
		l26.9-88.6c3.4-11,9.2-16.9,18.7-18.3c9.5-1.4,17,2.6,23.2,12.2l51.3,77.2c4.2,6.5,5.7,9.7,6.3,14c1.7,11.7-6.8,22.6-18.7,24.4
		c-9.9,1.4-16.7-2.4-24.3-14l-6.7-10.1L659.2,242.9z M702.5,244.7c6.3,9.6,10.7,12.4,17.8,11.3c8.3-1.2,14.3-9,13.1-16.9
		c-0.5-3.2-1.9-5.8-5.3-11.4l-51.3-77.2c-4.9-7.6-9.8-10.1-16.7-9.1c-6.7,1-10.8,4.8-13.2,13.5l-27,88.7c-1.9,6.3-2.3,9.2-1.8,12.4
		c1.2,7.9,9.1,13.6,17.4,12.4c7.1-1,10.6-5,13.8-16l4.6-15.4l39.6-5.8L702.5,244.7z M648.8,231.1l-5.8,19.5
		c-2.6,8.3-4.3,10.7-8.4,11.3c-4.7,0.7-9.3-2.5-9.9-6.8c-0.3-2,0.2-4.3,1.6-9.5l27-88.7c1.7-6.1,3.6-8.2,7.8-8.8s6.6,0.9,10.2,6.2
		l51.1,77.2c3.1,4.6,4.2,6.7,4.5,8.6c0.6,4.4-3,8.7-7.7,9.4c-4,0.6-6.5-1.3-11.1-8.5l-11.4-16.9L648.8,231.1z M686.8,209.2
		l-21.5-32.4L654,214L686.8,209.2z M667.6,192.2l8,12l-12.1,1.8L667.6,192.2z"/>
	<path class="st0" d="M787.2,237.2c-0.9,9.4-2.4,13.4-5.8,17.5c-4.6,5.6-11.7,8.3-18.8,7.6c-8-0.8-14.7-5.5-17.8-12.4
		c-2-4.4-2.1-8.7-1.3-17l8-80c0.8-8.4,2.6-13.6,6-17.7c4.6-5.6,11.5-8.3,18.8-7.6c8.2,0.8,12.3,4,19,14.6l27.9,42.8l2.5-24.9
		c0.9-9.2,2.4-13.4,5.8-17.5c4.6-5.4,11.7-8.3,18.8-7.6c8,0.8,14.7,5.7,17.8,12.6c2,4.4,2.2,8.3,1.3,16.8l-8,80.2
		c-0.9,9.4-2.2,13.5-5.6,17.7c-4.1,5.2-11.3,8.1-18.6,7.4c-7.4-0.7-12-4.2-18.1-13.5l-29.3-44.7L787.2,237.2z M824.6,252.6
		c4.9,7.5,8.1,9.9,13.2,10.4c5.6,0.6,10.8-1.5,13.4-5.7c2.1-3,2.8-5.9,3.5-13.3l8-80.2c0.8-8,0.5-11-1.4-14.4
		c-2.4-4.3-6.7-7.1-11.9-7.6c-5.4-0.5-10.6,1.7-13.7,5.9c-2.1,2.8-2.8,5.9-3.5,13.1l-4.4,43.8l-38.3-58.9
		c-5.6-8.6-8.4-10.7-14.1-11.3c-5.6-0.6-10.6,1.5-13.9,6c-1.9,2.6-3.1,6.9-3.7,13.1l-8,80c-0.8,7.8-0.5,11,1.3,14.6
		c2.4,4.3,6.7,6.9,11.9,7.4c5.4,0.5,10.6-1.5,13.7-5.9c2.1-2.8,2.8-5.8,3.5-13.1l4.5-44.4L824.6,252.6z M773.8,235.8
		c-0.6,6.4-1.3,8.5-2.7,10.4c-1.8,2-4.5,3-7.3,2.7c-3.2-0.3-5.8-2-7-4.5c-0.8-2.1-1-4.5-0.4-10.3l8-80c1-9.9,4-13.9,10.4-13.2
		c3.2,0.3,4.8,1.9,9.2,8.4l48.6,74.8l6.3-62.7c0.6-6.4,1.2-8.3,2.8-10.4c1.6-1.9,4.3-3,7.1-2.7c3.2,0.3,5.8,2.2,7,4.7
		c0.8,1.9,1,4.3,0.4,10.1l-8,80.2c-0.7,6.6-1.3,8.5-2.7,10.6c-1.4,1.9-4.1,2.8-6.9,2.5c-2.8-0.3-5-2.1-8.5-7.5l-50-76.2L773.8,235.8
		z"/>
	<path class="st0" d="M893.2,188.9c-8.6-2.6-12.1-4.8-15.7-9c-4.2-5.3-5.6-12.4-3.5-19.3c2.2-7.3,8.1-12.8,15.3-14.3
		c4.7-1.1,8.4-0.8,16.4,1.7l55.1,16.9c8.6,2.6,12.1,4.8,15.7,9c4.2,5.3,5.6,12.4,3.5,19.3c-2.2,7.3-8.1,12.8-15.3,14.3
		c-4.7,1.1-8.4,0.8-16.4-1.7l-6.5-2L923,265.2c-2.8,9-4.9,12.7-9.1,16c-5.6,4.6-12.9,5.9-20,3.7c-7.6-2.3-13.4-8.3-14.9-15.7
		c-1-4.9-0.7-8.8,1.9-17l18.8-61.4L893.2,188.9z M887.3,254.3c-2.3,7.6-2.8,10.6-1.6,14.6c1.3,4.6,5.1,8,10,9.6
		c5.4,1.6,10.7,0.6,14.5-3.1c2.6-2.3,4.1-5,6.2-12.1l20.8-67.9l12.8,3.9c7.3,2.2,10.3,2.5,14,1.6c4.4-1.4,7.8-5.1,9.3-9.7
		c1.5-5,0.5-10.3-3-14.1c-2.2-2.4-5-3.6-11.6-5.7l-55.1-16.9c-7.3-2.2-10.3-2.5-14-1.6c-4.4,1.4-7.8,5.1-9.3,9.7
		c-1.5,5-0.5,10.3,3,14.1c2.2,2.4,5,3.6,11.6,5.7l13,4L887.3,254.3z M897.1,176.1c-5.9-1.8-7.7-2.8-9.1-4.5
		c-1.6-1.7-1.9-4.6-1.2-7.1c0.8-2.7,2.9-4.8,5.4-5.4c2-0.4,4,0,9.5,1.7l55.1,16.9c5.9,1.8,7.7,2.8,9.1,4.5c1.6,1.7,1.9,4.6,1.2,7.1
		c-0.8,2.7-2.9,4.8-5.4,5.4c-2,0.4-4,0-9.5-1.7l-19.1-5.9l-22.8,74.2c-1.9,6.1-2.9,8.1-4.8,9.6c-2,1.7-5,2-7.7,1.2
		c-3.1-0.9-5.1-3-5.7-5.9c-0.6-2.1-0.2-4.2,1.6-10l22.8-74.2L897.1,176.1z"/>
	<path class="st0" d="M1030.5,303.7c1.2,7.2,0.7,13-1.8,17.8c-5.7,11-18.5,15.2-29.3,9.5c-7.6-4-10.7-9.4-12.1-21.9l-2.4-19.5
		l-1.1,2.1c-4.6,8.4-7.2,11.6-11.9,14.1c-6.2,3.3-13.9,3.3-20.3,0c-7.1-3.7-11.6-10.6-12-18.2c-0.1-5,1.1-8.7,5.1-16.3l36.5-70.1
		c5-9.6,9.6-14.2,16.3-16.1c6.4-1.9,12.1-0.7,21.8,4.4l14.7,7.7c14.4,7.5,21.3,13.6,26.9,23.7c8,14.5,8.2,31.8,0.7,46.3
		c-6.7,12.8-17.8,21.2-33.1,24.9L1030.5,303.7z M1055.8,264.4c7-13.5,6.1-30-2.3-42.7c-4.7-7.4-10.4-12-22.5-18.3l-14.7-7.7
		c-14.9-7.8-21.5-5.8-29.1,8.7l-36.5,70.1c-3.7,7.1-4.6,10-4.2,14.1c0.6,4.8,3.7,8.9,8.3,11.3c4.8,2.5,10.4,2.5,14.9-0.4
		c3-1.8,4.6-4.1,8.1-10.9l7.6-14.1l4.8,2.5l3.8,31.3c1.1,9.1,3.7,14.1,8.8,16.8c7.3,3.8,16.1,0.7,20-6.7c1.8-3.5,2.1-6.6,1.2-13.6
		l-2.3-18.6C1035.5,285.8,1049.1,277.1,1055.8,264.4z M971.8,285.6c-3,5.7-4.3,7.4-6.3,8.7c-2.4,1.2-5.3,1.1-7.8-0.2
		c-2.8-1.5-4.7-4-4.7-7c-0.1-2.1,0.6-4.2,3.4-9.5l36.5-70.1c5.8-11.2,8.7-11.9,20.2-5.9l14.7,7.7c12.1,6.3,17.2,10.8,21.4,18.2
		c5.7,10.7,6,23.4,0.6,33.9c-6.7,12.9-19.6,19.5-36.4,18.3l3.9,26.4c0.6,4.8,0.5,7.3-0.6,9.4c-2.2,4.3-7,6.1-10.9,4
		c-3.2-1.7-4.7-4.9-5.3-11.8l-4.4-34.8l-13.8-7.2L971.8,285.6z M989.1,252.4l15.1,7.9l0.7,0.4c12.9,6.7,24.4,3.9,30.2-7.3
		c6.2-11.9,1.5-22.9-12.5-30.2l-14.4-7.5L989.1,252.4z M1011.1,224.6l8.5,4.4c10.8,5.6,14.1,12.8,9.7,21.3
		c-2.4,4.6-6.7,7.3-11.8,7.4c-3,0-5.4-0.8-10.8-3.6l-8.7-4.5L1011.1,224.6z M1009.8,248.3c7.6,4,11.1,3.8,13.7-1.2
		c2.5-4.8,0.5-8.3-7-12.2l-2.5-1.3l-6.9,13.3L1009.8,248.3z"/>
	<path class="st0" d="M1162.6,372.1c-24.8,29.3-68.7,33.1-98.1,8.3c-29.5-24.9-33.2-68.9-8.5-98.2c24.9-29.5,68.9-33.2,98.4-8.3
		C1183.8,298.7,1187.5,342.6,1162.6,372.1z M1061.3,286.6c-22.4,26.6-19,66.2,7.6,88.6c26.6,22.4,66.2,19.2,88.6-7.4
		s19.1-66.3-7.5-88.8C1123.4,256.7,1083.7,260,1061.3,286.6z M1152.5,363.6c-20,23.7-55.7,26.6-79.3,6.6
		c-23.8-20.1-26.8-55.6-6.9-79.3c20.1-23.8,55.6-26.9,79.5-6.7C1169.5,304.1,1172.6,339.8,1152.5,363.6z M1079.6,302.1
		c-13.8,16.4-11.7,40.9,4.8,54.8c16.4,13.8,41,11.9,54.8-4.5c13.9-16.5,11.7-41.2-4.7-55C1118.1,283.5,1093.5,285.6,1079.6,302.1z
		 M1134.2,348.1c-11.5,13.6-31.9,15.2-45.5,3.7c-13.8-11.6-15.5-31.9-4-45.5c11.6-13.8,31.9-15.5,45.7-3.9
		C1143.9,314,1145.8,334.4,1134.2,348.1z M1089.7,310.6c-9,10.7-7.6,27,3.2,36.2c10.7,9,27,7.6,36.1-3.1c9.2-10.9,7.8-27.2-2.9-36.2
		C1115.2,298.4,1098.9,299.8,1089.7,310.6z"/>
	<path class="st0" d="M1159.9,437.8c-7.5,5.7-11.4,7.4-16.8,7.7c-7.2,0.4-14-2.9-18.4-8.7c-4.8-6.4-6-14.5-3-21.5
		c2.1-4.6,4.7-7.3,11.6-12.5l63-47.7c8.6-6.5,14.8-8.7,21.6-7.6c6.6,1,11.2,4.5,17.9,13.3l12.2,16.1c9.3,12.3,12.8,21.9,12.4,34
		c-0.5,14.9-7.5,28.8-19.7,38c-14.2,10.8-32.9,13.2-48.8,6.1c-9.1-4.1-14.8-8.9-23.8-20.8l-1.2-1.6L1159.9,437.8z M1173.5,430
		c9.1,12,14.6,16.6,23.7,20c13.3,4.7,28.1,2.3,39.6-6.4c11.2-8.5,17.6-21.8,16.9-35.6c-0.4-9.5-3.4-16.7-11.1-26.9l-12.2-16.1
		c-10.1-13.4-17-14.5-30.1-4.6l-63,47.7c-6.4,4.8-8.4,7.1-9.8,10.9c-1.5,4.6-0.5,9.6,2.7,13.8c3.3,4.3,8.4,6.7,13.6,6
		c3.5-0.4,6.1-1.9,12-6.3l12.4-9.4L1173.5,430z M1151.8,427.1c-5.1,3.9-7.1,4.9-9.4,5.1c-2.7,0.1-5.2-1.3-6.9-3.5
		c-1.9-2.6-2.5-5.6-1.3-8.3c0.8-1.9,2.3-3.5,7.1-7.2l63-47.7c10-7.6,13-7.1,20.8,3.3l12.2,16.1c7.4,9.7,10.1,16.7,9.8,25.5
		c-0.2,11-5.5,21.2-14.3,27.9c-10.4,7.9-24,9.4-35.6,4.4c-6.7-2.9-10.8-6.6-18.4-16.7l-9.3-12.3L1151.8,427.1z M1191.9,418.8
		c5.3,7,7.9,9.1,13.1,10.7c5.9,1.5,12.6,0,18-4.1c5.3-4,8.3-9.6,8.4-15.7c0.1-5.1-1.7-9.5-6.6-16l-10.5-13.9l-33,25L1191.9,418.8z
		 M1213,389l6.5,8.6c7.2,9.6,7,16.8-0.5,22.5c-4,3-9,4-13.1,2.6c-3.1-1.1-4.7-2.5-8.8-7.9l-6.6-8.8L1213,389z M1202.4,410.9
		c3.5,4.6,4.3,5.3,6.1,5.7c1.9,0.6,4.3-0.3,6.4-1.8c4.5-3.4,4.3-6.3-0.8-13l-2.4-3.2l-11.8,8.9L1202.4,410.9z"/>
	<path class="st0" d="M1286.6,587c-35,15.8-76.3,0.2-92.1-34.8c-15.9-35.2-0.3-76.5,34.7-92.3c35.2-15.9,76.5-0.3,92.3,34.9
		C1337.3,529.9,1321.7,571.1,1286.6,587z M1232,466.2c-31.7,14.3-45.6,51.6-31.3,83.3c14.3,31.7,51.5,45.9,83.2,31.6
		c31.7-14.3,45.8-51.6,31.5-83.3S1263.7,451.9,1232,466.2z M1281.1,575c-28.2,12.8-61.7,0-74.4-28.3c-12.8-28.4-0.3-61.8,28-74.5
		c28.4-12.8,61.8-0.3,74.6,28.2C1322.1,528.6,1309.6,562.2,1281.1,575z M1241.8,488.1c-19.5,8.8-28.2,31.8-19.3,51.5
		c8.8,19.5,31.9,28.4,51.4,19.6c19.7-8.9,28.3-32.1,19.5-51.6C1284.5,487.9,1261.5,479.2,1241.8,488.1z M1271.2,553.1
		c-16.2,7.3-35.4,0-42.7-16.3c-7.4-16.4-0.2-35.5,16-42.8c16.4-7.4,35.5-0.2,42.9,16.2C1294.8,526.5,1287.6,545.7,1271.2,553.1z
		 M1247.3,500.1c-12.8,5.8-18.6,21.1-12.7,34.1c5.8,12.8,21.1,18.6,33.9,12.8c12.9-5.8,18.7-21.2,13-34
		C1275.6,500.1,1260.2,494.3,1247.3,500.1z"/>
	<path class="st0" d="M1351,651.2c11.1,2.2,17.8,8.2,19.7,17.6c2.5,12.1-5.1,24.1-16.6,26.5c-3.3,0.7-8.1,0.2-13.5-1.1l-92.3-22.2
		c-11-2.9-16.8-8.2-18.7-17.8c-2-9.8,1.2-17,10.3-23.7l76.2-56.8c4.6-3.4,8.7-5.5,12.4-6.2c11.2-2.3,22.8,5.7,25.3,17.7
		c1.9,9.4-1.9,17.5-11.2,24.1l-44.7,31L1351,651.2z M1338.6,603.7c7.2-4.9,9.7-10.6,8.3-17.2c-1.7-8.4-9.6-14.2-17.5-12.6
		c-2.5,0.5-5.9,2.2-9.6,5l-76,56.8c-7.3,5.4-9.4,9.9-7.9,17.1c1.4,7.1,5.2,10.6,14,12.6l92.1,22.2c4.5,1.1,8.2,1.4,10.8,0.9
		c7.8-1.6,12.9-9.8,11.2-18.2c-1.4-6.9-5.9-11-14.5-12.8l-68.6-13.9L1338.6,603.7z M1348.3,664.2c5.8,1.3,8.2,3.2,9.1,7.3
		c1,5.1-1.5,9.7-5.8,10.6c-1.6,0.3-4.5-0.1-7.9-0.8l-92.8-22.5c-4.9-1.2-7.9-3.5-8.6-7.2c-0.8-3.7,1-7.1,5.1-10.2l76.6-56.9
		c2.8-2.2,5.4-3.7,6.9-4.1c4.3-0.9,8.5,2.6,9.5,7.5c0.8,4.1-0.6,7.1-5.4,10.3l-70.4,48.9L1348.3,664.2z"/>
</g>
</svg>
